<svg xmlns="http://www.w3.org/2000/svg" width="20" height="20" viewBox="0 0 20 20"><path fill-rule="evenodd" d="M1 5a1 1 0 0 1 1-1h5.257a3.5 3.5 0 0 1 2.243.813A3.5 3.5 0 0 1 11.743 4H17a1 1 0 0 1 1 1v11a1 1 0 0 1-1 1h-4.757a2.5 2.5 0 0 0-1.768.732l-.268.268H8.793l-.268-.268A2.5 2.5 0 0 0 6.757 17H2a1 1 0 0 1-1-1V5zm6.257 0H2v11h4.757a3.5 3.5 0 0 1 2.45 1h.586a3.5 3.5 0 0 1 2.45-1H17V5h-5.257a2.5 2.5 0 0 0-1.768.732l-.475.475-.475-.475A2.5 2.5 0 0 0 7.257 5z" clip-rule="evenodd"/><path fill-rule="evenodd" d="M9 17.5v-12h1v12H9zM7 8H4V7h3v1zM7 11H4v-1h3v1zM7 14H4v-1h3v1zM15 8h-3V7h3v1zM15 11h-3v-1h3v1zM15 14h-3v-1h3v1z" clip-rule="evenodd"/></svg>